<?xml version="1.0" encoding="UTF-8"?>
<!DOCTYPE svg PUBLIC "-//W3C//DTD SVG 1.1//EN" "http://www.w3.org/Graphics/SVG/1.1/DTD/svg11.dtd">
<svg xmlns="http://www.w3.org/2000/svg" version="1.1" width="345px" height="339px" style="shape-rendering:geometricPrecision; text-rendering:geometricPrecision; image-rendering:optimizeQuality; fill-rule:evenodd; clip-rule:evenodd" xmlns:xlink="http://www.w3.org/1999/xlink">
<g><path style="opacity:1" fill="#f9fbfc" d="M 296.5,209.5 C 295.28,214.455 295.28,219.455 296.5,224.5C 290.332,224.156 285.832,221.156 283,215.5C 278.107,203.269 275.773,190.602 276,177.5C 276.374,176.584 276.874,175.75 277.5,175C 277.167,174.833 276.833,174.667 276.5,174.5C 275.081,176.336 273.914,178.336 273,180.5C 272.542,188.838 272.708,197.172 273.5,205.5C 275.073,217.93 269.739,223.763 257.5,223C 256.667,222.167 255.833,221.333 255,220.5C 254.412,210.82 254.078,201.153 254,191.5C 261.438,181.346 264.271,170.013 262.5,157.5C 262.539,156.244 262.039,155.244 261,154.5C 260.505,156.473 260.338,158.473 260.5,160.5C 260.269,165.698 259.103,170.698 257,175.5C 253.745,181.008 250.745,186.675 248,192.5C 249.556,215.831 242.723,236.331 227.5,254C 221.051,256.157 214.718,255.824 208.5,253C 205.959,251.152 204.959,248.652 205.5,245.5C 206.589,241.49 208.589,237.99 211.5,235C 218.337,230.747 225.337,226.747 232.5,223C 237.358,219.783 240.024,215.283 240.5,209.5C 239.228,204.211 238.728,198.878 239,193.5C 242.667,189.167 246.333,184.833 250,180.5C 256.342,164.663 258.009,148.33 255,131.5C 252.377,122.528 246.543,119.028 237.5,121C 245.521,123.025 250.021,128.192 251,136.5C 252.663,151.507 250.33,165.84 244,179.5C 239.913,182.916 236.58,186.916 234,191.5C 234,198.833 234,206.167 234,213.5C 233.044,214.579 232.211,215.745 231.5,217C 223.001,221.748 214.668,226.748 206.5,232C 202.586,236.994 199.586,242.494 197.5,248.5C 194.957,255.256 192.124,261.923 189,268.5C 188,269.5 187,270.5 186,271.5C 189.593,253.311 197.26,236.978 209,222.5C 211.833,220.333 214.667,218.167 217.5,216C 218.696,215.346 218.696,214.846 217.5,214.5C 205.139,220.694 195.972,230.028 190,242.5C 186.583,251.75 182.583,260.75 178,269.5C 170.747,280.539 160.58,284.373 147.5,281C 140.831,279.167 134.498,276.5 128.5,273C 123.625,271.364 118.625,270.531 113.5,270.5C 111.345,270.372 109.345,270.872 107.5,272C 109.134,272.494 110.801,272.66 112.5,272.5C 115.113,273.095 115.113,273.929 112.5,275C 110.5,275.667 108.5,275.667 106.5,275C 100.695,272.933 95.3622,270.099 90.5,266.5C 86.1501,262.803 84.3168,258.137 85,252.5C 85.5,252 86,251.5 86.5,251C 92.8704,251.283 99.2037,252.116 105.5,253.5C 113.414,253.751 120.414,251.418 126.5,246.5C 129.072,244.364 130.239,241.697 130,238.5C 119.058,250.031 106.558,252.198 92.5,245C 90.9837,243.103 90.317,240.936 90.5,238.5C 92.9892,238.298 95.3225,238.798 97.5,240C 102.833,240.667 108.167,240.667 113.5,240C 119.597,238.249 123.097,234.416 124,228.5C 118.296,235.685 110.796,238.685 101.5,237.5C 103.5,236.833 105.5,236.167 107.5,235.5C 111.957,234.688 115.79,232.688 119,229.5C 120.871,224.533 120.037,224.366 116.5,229C 98.7365,238.119 88.4031,232.952 85.5,213.5C 85.3367,211.143 85.5034,208.81 86,206.5C 87.0391,207.71 88.2058,208.71 89.5,209.5C 97.3448,224.47 98.1782,224.137 92,208.5C 86.1348,189.61 83.9681,170.277 85.5,150.5C 86.1667,151.167 86.8333,151.833 87.5,152.5C 90.2083,174.414 99.2083,193.247 114.5,209C 120.742,212.228 127.075,212.228 133.5,209C 135.329,207.887 136.163,206.387 136,204.5C 133.769,206.377 131.269,207.21 128.5,207C 133.081,203.562 134.581,199.062 133,193.5C 131.626,201.888 126.793,205.721 118.5,205C 115.667,202.167 112.833,199.333 110,196.5C 110.261,192.02 110.761,187.52 111.5,183C 110.514,177.876 109.848,172.709 109.5,167.5C 112.766,167.433 114.266,169.099 114,172.5C 114.333,171.833 114.667,171.167 115,170.5C 116.243,159.224 116.91,147.891 117,136.5C 117.958,131.21 121.124,128.376 126.5,128C 124.655,126.577 122.655,125.41 120.5,124.5C 123.133,120.668 126.466,117.501 130.5,115C 138.051,110.557 146.051,107.223 154.5,105C 141.674,105.412 130.341,109.745 120.5,118C 117.935,118.609 115.601,118.109 113.5,116.5C 115.836,114.927 115.836,113.594 113.5,112.5C 110.243,111.538 107.243,110.038 104.5,108C 93.8788,99.5957 86.0454,89.0957 81,76.5C 79.9595,73.3637 80.7928,70.8637 83.5,69C 84.7839,68.3162 85.9505,68.4829 87,69.5C 92.5681,80.8062 99.7347,90.9729 108.5,100C 112.39,102.947 116.723,104.78 121.5,105.5C 121.34,107.199 121.506,108.866 122,110.5C 127.25,105.011 131.25,98.6777 134,91.5C 137.832,77.9962 142.832,64.9962 149,52.5C 151.205,49.9598 153.705,47.7932 156.5,46C 183.213,44.7717 205.713,53.9384 224,73.5C 224.667,74.5 224.667,75.5 224,76.5C 216.563,90.2777 206.563,101.944 194,111.5C 190.774,115.574 190.774,119.574 194,123.5C 194.333,121.5 194.667,119.5 195,117.5C 211.716,105.116 224.383,89.4495 233,70.5C 237.348,65.4007 241.848,65.234 246.5,70C 243.542,70.2293 241.042,71.396 239,73.5C 232.616,91.1167 221.783,105.283 206.5,116C 214.473,114.452 222.14,112.118 229.5,109C 222.558,114.305 214.891,118.305 206.5,121C 211.563,121.145 216.563,120.812 221.5,120C 232.14,129.923 235.973,142.09 233,156.5C 231.663,163.187 229.163,169.354 225.5,175C 229.52,173.648 232.354,170.814 234,166.5C 240.856,150.902 239.856,135.902 231,121.5C 229.5,120 228,118.5 226.5,117C 230.666,114.083 234.999,111.416 239.5,109C 241.5,108.333 243.5,108.333 245.5,109C 255.405,121.963 265.905,134.463 277,146.5C 283.917,154.657 289.584,163.657 294,173.5C 297.582,185.293 298.415,197.293 296.5,209.5 Z"/></g>
<g><path style="opacity:1" fill="#0f2f48" d="M 205.5,245.5 C 204.209,244.458 204.209,243.292 205.5,242C 204.975,241.308 204.308,240.808 203.5,240.5C 202.081,242.958 201.081,245.625 200.5,248.5C 199.473,247.209 198.473,247.209 197.5,248.5C 199.586,242.494 202.586,236.994 206.5,232C 214.668,226.748 223.001,221.748 231.5,217C 232.211,215.745 233.044,214.579 234,213.5C 234,206.167 234,198.833 234,191.5C 236.58,186.916 239.913,182.916 244,179.5C 250.33,165.84 252.663,151.507 251,136.5C 250.021,128.192 245.521,123.025 237.5,121C 246.543,119.028 252.377,122.528 255,131.5C 258.009,148.33 256.342,164.663 250,180.5C 246.333,184.833 242.667,189.167 239,193.5C 238.728,198.878 239.228,204.211 240.5,209.5C 240.024,215.283 237.358,219.783 232.5,223C 225.337,226.747 218.337,230.747 211.5,235C 208.589,237.99 206.589,241.49 205.5,245.5 Z"/></g>
<g><path style="opacity:1" fill="#19354c" d="M 202.5,184.5 C 204.727,186.809 205.727,189.642 205.5,193C 205.177,197.637 203.843,201.971 201.5,206C 202.33,207.465 202.496,208.965 202,210.5C 200.833,208 199,206.167 196.5,205C 186.132,202.665 186.132,201.332 196.5,201C 201.308,199.688 203.642,196.521 203.5,191.5C 203.247,189.142 202.914,186.808 202.5,184.5 Z"/></g>
<g><path style="opacity:1" fill="#173146" d="M 223.5,204.5 C 230.259,203.132 232.092,205.799 229,212.5C 227.364,214.898 225.198,216.065 222.5,216C 226.059,213.72 227.559,210.553 227,206.5C 226.184,205.177 225.017,204.511 223.5,204.5 Z"/></g>
<g><path style="opacity:0.983" fill="#0d2f48" d="M 303.5,184.5 C 301.807,185.475 300.307,186.808 299,188.5C 299.135,195.905 298.302,202.905 296.5,209.5C 298.415,197.293 297.582,185.293 294,173.5C 289.584,163.657 283.917,154.657 277,146.5C 265.905,134.463 255.405,121.963 245.5,109C 243.5,108.333 241.5,108.333 239.5,109C 234.999,111.416 230.666,114.083 226.5,117C 228,118.5 229.5,120 231,121.5C 239.856,135.902 240.856,150.902 234,166.5C 232.354,170.814 229.52,173.648 225.5,175C 229.163,169.354 231.663,163.187 233,156.5C 235.973,142.09 232.14,129.923 221.5,120C 216.563,120.812 211.563,121.145 206.5,121C 214.891,118.305 222.558,114.305 229.5,109C 222.14,112.118 214.473,114.452 206.5,116C 221.783,105.283 232.616,91.1167 239,73.5C 241.042,71.396 243.542,70.2293 246.5,70C 241.848,65.234 237.348,65.4007 233,70.5C 224.383,89.4495 211.716,105.116 195,117.5C 194.667,119.5 194.333,121.5 194,123.5C 190.774,119.574 190.774,115.574 194,111.5C 206.563,101.944 216.563,90.2777 224,76.5C 224.667,75.5 224.667,74.5 224,73.5C 205.713,53.9384 183.213,44.7717 156.5,46C 153.705,47.7932 151.205,49.9598 149,52.5C 142.832,64.9962 137.832,77.9962 134,91.5C 131.25,98.6777 127.25,105.011 122,110.5C 121.506,108.866 121.34,107.199 121.5,105.5C 116.723,104.78 112.39,102.947 108.5,100C 99.7347,90.9729 92.5681,80.8062 87,69.5C 85.9505,68.4829 84.7839,68.3162 83.5,69C 80.7928,70.8637 79.9595,73.3637 81,76.5C 86.0454,89.0957 93.8788,99.5957 104.5,108C 107.243,110.038 110.243,111.538 113.5,112.5C 111.274,113.559 108.941,113.392 106.5,112C 95,105.833 86.1667,97 80,85.5C 80.5142,89.8763 82.1809,93.8763 85,97.5C 92.9281,106.212 102.428,112.546 113.5,116.5C 115.601,118.109 117.935,118.609 120.5,118C 130.341,109.745 141.674,105.412 154.5,105C 146.051,107.223 138.051,110.557 130.5,115C 126.466,117.501 123.133,120.668 120.5,124.5C 122.655,125.41 124.655,126.577 126.5,128C 121.124,128.376 117.958,131.21 117,136.5C 116.91,147.891 116.243,159.224 115,170.5C 114.667,171.167 114.333,171.833 114,172.5C 114.266,169.099 112.766,167.433 109.5,167.5C 109.848,172.709 110.514,177.876 111.5,183C 110.761,187.52 110.261,192.02 110,196.5C 112.833,199.333 115.667,202.167 118.5,205C 126.793,205.721 131.626,201.888 133,193.5C 134.581,199.062 133.081,203.562 128.5,207C 131.269,207.21 133.769,206.377 136,204.5C 136.163,206.387 135.329,207.887 133.5,209C 127.075,212.228 120.742,212.228 114.5,209C 99.2083,193.247 90.2083,174.414 87.5,152.5C 87.628,150.345 87.128,148.345 86,146.5C 85.51,147.793 85.3433,149.127 85.5,150.5C 83.9681,170.277 86.1348,189.61 92,208.5C 98.1782,224.137 97.3448,224.47 89.5,209.5C 83.4024,192.065 80.569,174.065 81,155.5C 78.0773,175.303 79.5773,194.637 85.5,213.5C 88.4031,232.952 98.7365,238.119 116.5,229C 120.037,224.366 120.871,224.533 119,229.5C 115.79,232.688 111.957,234.688 107.5,235.5C 104.482,235.335 101.482,235.502 98.5,236C 99.2438,237.039 100.244,237.539 101.5,237.5C 110.796,238.685 118.296,235.685 124,228.5C 123.097,234.416 119.597,238.249 113.5,240C 108.167,240.667 102.833,240.667 97.5,240C 95.3225,238.798 92.9892,238.298 90.5,238.5C 90.317,240.936 90.9837,243.103 92.5,245C 106.558,252.198 119.058,250.031 130,238.5C 130.239,241.697 129.072,244.364 126.5,246.5C 120.414,251.418 113.414,253.751 105.5,253.5C 99.2037,252.116 92.8704,251.283 86.5,251C 86,251.5 85.5,252 85,252.5C 84.3168,258.137 86.1501,262.803 90.5,266.5C 88.7697,267.026 87.4363,268.026 86.5,269.5C 83.376,267.276 81.2094,264.276 80,260.5C 79.6369,256.134 79.6369,251.801 80,247.5C 73.4197,242.208 66.0863,238.208 58,235.5C 54.6769,236.657 53.1769,238.991 53.5,242.5C 55.4778,250.407 56.8111,258.407 57.5,266.5C 55.8906,263.851 55.0572,260.851 55,257.5C 54.6667,258.5 54.3333,259.5 54,260.5C 53.1237,258.365 51.6237,257.031 49.5,256.5C 47.0293,247.589 43.8626,238.922 40,230.5C 36.1909,228.22 33.8575,224.887 33,220.5C 26.3538,201.525 27.0204,182.858 35,164.5C 47.4778,141.522 64.6445,122.856 86.5,108.5C 80.4914,102.486 75.9914,95.4861 73,87.5C 72.0158,81.3072 72.6825,75.3072 75,69.5C 80.3038,61.1201 86.3038,60.4534 93,67.5C 96.845,76.5324 102.178,84.5324 109,91.5C 118.267,84.2359 126.934,76.2359 135,67.5C 138.169,58.326 143.002,50.1593 149.5,43C 151.717,41.7246 154.051,40.7246 156.5,40C 184.267,38.6436 207.934,47.8103 227.5,67.5C 233.184,60.1053 240.184,58.6053 248.5,63C 251.573,66.5831 253.24,70.7497 253.5,75.5C 252.562,83.5834 250.229,91.2501 246.5,98.5C 256.382,112.886 267.215,126.553 279,139.5C 286.659,148.812 293.326,158.812 299,169.5C 300.81,174.429 302.31,179.429 303.5,184.5 Z"/></g>
<g><path style="opacity:1" fill="#dbe8ee" d="M 89.5,209.5 C 88.2058,208.71 87.0391,207.71 86,206.5C 85.5034,208.81 85.3367,211.143 85.5,213.5C 79.5773,194.637 78.0773,175.303 81,155.5C 80.569,174.065 83.4024,192.065 89.5,209.5 Z"/></g>
<g><path style="opacity:1" fill="#12324b" d="M 196.5,172.5 C 200.849,171.577 204.183,172.91 206.5,176.5C 204.257,177.474 201.924,177.808 199.5,177.5C 201.59,184.555 200.59,191.055 196.5,197C 194.655,198.128 192.655,198.628 190.5,198.5C 190.762,197.022 190.429,195.689 189.5,194.5C 188.887,195.98 188.554,197.313 188.5,198.5C 185.604,198.293 182.604,198.127 179.5,198C 178.5,197.167 177.5,196.333 176.5,195.5C 181.242,195.213 185.075,193.213 188,189.5C 189.619,183.088 192.452,177.422 196.5,172.5 Z"/></g>
<g><path style="opacity:1" fill="#cddee6" d="M 194.5,182.5 C 195.5,182.5 196.5,182.5 197.5,182.5C 196.949,190.297 195.949,190.297 194.5,182.5 Z"/></g>
<g><path style="opacity:1" fill="#223c50" d="M 127.5,158.5 C 125.847,167.947 126.847,177.281 130.5,186.5C 130.154,187.696 129.654,187.696 129,186.5C 127.472,183.583 126.139,180.583 125,177.5C 124.603,181.092 125.103,184.592 126.5,188C 126.333,188.5 126.167,189 126,189.5C 121.746,178.818 120.58,179.318 122.5,191C 121.833,191.667 121.167,191.667 120.5,191C 117.867,186.501 117.867,182.001 120.5,177.5C 122.001,180.174 123.001,180.007 123.5,177C 124.641,170.813 125.641,164.313 126.5,157.5C 127.107,157.624 127.44,157.957 127.5,158.5 Z"/></g>
<g><path style="opacity:1" fill="#14334a" d="M 145.5,140.5 C 146.483,144.298 146.817,148.298 146.5,152.5C 145.833,157.5 145.167,162.5 144.5,167.5C 149.472,166.578 154.472,166.412 159.5,167C 167.328,171.476 168.495,177.309 163,184.5C 158.546,188.612 157.88,188.279 161,183.5C 163.76,178.212 162.926,173.712 158.5,170C 157.5,169.333 156.5,169.333 155.5,170C 159.81,173.341 160.644,177.508 158,182.5C 155.249,187.275 151.416,190.442 146.5,192C 152.339,187.827 155.006,182.327 154.5,175.5C 143.661,172.643 134.661,166.977 127.5,158.5C 127.44,157.957 127.107,157.624 126.5,157.5C 125.641,164.313 124.641,170.813 123.5,177C 123.001,180.007 122.001,180.174 120.5,177.5C 118.759,166.973 119.592,156.639 123,146.5C 128.316,152.983 134.149,158.983 140.5,164.5C 143.09,156.711 144.757,148.711 145.5,140.5 Z"/></g>
<g><path style="opacity:1" fill="#818e99" d="M 262.5,157.5 C 261.833,158.5 261.167,159.5 260.5,160.5C 260.338,158.473 260.505,156.473 261,154.5C 262.039,155.244 262.539,156.244 262.5,157.5 Z"/></g>
<g><path style="opacity:1" fill="#143148" d="M 175.5,123.5 C 185.655,122.491 191.655,126.991 193.5,137C 191.072,146.951 188.238,156.785 185,166.5C 184.186,168.902 184.353,171.235 185.5,173.5C 186.842,170.679 187.508,170.846 187.5,174C 187.217,181.101 183.884,185.934 177.5,188.5C 175.444,187.952 173.777,186.786 172.5,185C 175,183.833 176.833,182 178,179.5C 181.585,165.563 185.418,151.729 189.5,138C 189.018,130.851 185.185,127.018 178,126.5C 175.378,126.925 172.878,127.425 170.5,128C 172.24,126.483 173.906,124.983 175.5,123.5 Z"/></g>
<g><path style="opacity:1" fill="#5f7785" d="M 146.5,152.5 C 146.817,148.298 146.483,144.298 145.5,140.5C 145.351,139.448 145.517,138.448 146,137.5C 146.333,137.833 146.667,138.167 147,138.5C 147.815,143.352 147.648,148.019 146.5,152.5 Z"/></g>
<g><path style="opacity:1" fill="#f8fbfb" d="M 91.5,112.5 C 99.4783,116.155 107.478,119.822 115.5,123.5C 115.833,124.5 116.167,125.5 116.5,126.5C 112.418,138.544 111.418,150.877 113.5,163.5C 110.348,162.959 107.848,163.959 106,166.5C 106.241,171.986 106.741,177.486 107.5,183C 107.167,185.167 106.833,187.333 106.5,189.5C 98.4678,177.079 93.6345,163.413 92,148.5C 91.4892,137.807 91.4892,127.141 92,116.5C 76.0055,138.635 70.3388,163.302 75,190.5C 76.3663,199.966 78.3663,209.299 81,218.5C 84.1968,239.339 78.1968,242.673 63,228.5C 59.8263,223.94 58.8263,218.94 60,213.5C 64.2413,203.211 66.2413,192.545 66,181.5C 64.8338,178.497 63.1672,175.83 61,173.5C 62.4045,178.311 62.7378,183.311 62,188.5C 58.9653,197.472 56.7986,206.638 55.5,216C 55.4815,219.639 56.1482,223.139 57.5,226.5C 44.2397,226.749 37.073,220.083 36,206.5C 33.2939,194.157 34.2939,182.157 39,170.5C 48.4616,151.095 61.6283,134.595 78.5,121C 82.8984,118.143 87.2317,115.309 91.5,112.5 Z"/></g>
<g><path style="opacity:1" fill="#6786a3" d="M 87.5,152.5 C 86.8333,151.833 86.1667,151.167 85.5,150.5C 85.3433,149.127 85.51,147.793 86,146.5C 87.128,148.345 87.628,150.345 87.5,152.5 Z"/></g>
<g><path style="opacity:1" fill="#cee2ed" d="M 113.5,112.5 C 115.836,113.594 115.836,114.927 113.5,116.5C 102.428,112.546 92.9281,106.212 85,97.5C 82.1809,93.8763 80.5142,89.8763 80,85.5C 86.1667,97 95,105.833 106.5,112C 108.941,113.392 111.274,113.559 113.5,112.5 Z"/></g>
<g><path style="opacity:1" fill="#e9f4f7" d="M 246.5,78.5 C 247.124,78.9169 247.457,79.5836 247.5,80.5C 242.88,96.6211 232.547,106.788 216.5,111C 227.115,104.773 235.948,96.6066 243,86.5C 244.454,83.9289 245.62,81.2622 246.5,78.5 Z"/></g>
<g><path style="opacity:1" fill="#eff6f8" d="M 131.5,79.5 C 130.37,85.5156 128.203,91.5156 125,97.5C 121.535,100.128 118.035,100.128 114.5,97.5C 113.479,96.9984 113.312,96.3317 114,95.5C 120.029,90.3008 125.862,84.9674 131.5,79.5 Z"/></g>
<g><path style="opacity:1" fill="#7499af" d="M 107.5,235.5 C 105.5,236.167 103.5,236.833 101.5,237.5C 100.244,237.539 99.2438,237.039 98.5,236C 101.482,235.502 104.482,235.335 107.5,235.5 Z"/></g>
<g><path style="opacity:1" fill="#f8fbfc" d="M 86.5,269.5 C 86.6107,270.117 86.944,270.617 87.5,271C 77.5056,271.5 67.5056,271.666 57.5,271.5C 57.5,269.833 57.5,268.167 57.5,266.5C 56.8111,258.407 55.4778,250.407 53.5,242.5C 53.1769,238.991 54.6769,236.657 58,235.5C 66.0863,238.208 73.4197,242.208 80,247.5C 79.6369,251.801 79.6369,256.134 80,260.5C 81.2094,264.276 83.376,267.276 86.5,269.5 Z"/></g>
<g><path style="opacity:1" fill="#123049" d="M 152.5,254.5 C 151.539,252.735 151.205,250.735 151.5,248.5C 151.751,246.83 152.418,245.33 153.5,244C 148.197,243.382 146.03,240.548 147,235.5C 151.309,240.304 156.143,240.804 161.5,237C 170.866,234.879 174.866,238.379 173.5,247.5C 168.496,239.879 162.996,239.546 157,246.5C 155.235,249.032 153.735,251.699 152.5,254.5 Z"/></g>
<g><path style="opacity:1" fill="#0c2f4b" d="M 162.5,244.5 C 164.467,244.261 166.301,244.594 168,245.5C 169.644,254.186 166.144,258.019 157.5,257C 156.409,254.936 156.242,252.769 157,250.5C 158.36,247.977 160.193,245.977 162.5,244.5 Z"/></g>
<g><path style="opacity:1" fill="#68757e" d="M 151.5,248.5 C 151.205,250.735 151.539,252.735 152.5,254.5C 152.539,255.756 152.039,256.756 151,257.5C 150.195,254.304 150.362,251.304 151.5,248.5 Z"/></g>
<g><path style="opacity:1" fill="#213f53" d="M 169.5,253.5 C 170.11,259.433 167.277,263.1 161,264.5C 158.63,264.4 156.797,263.4 155.5,261.5C 162.051,261.898 166.717,259.231 169.5,253.5 Z"/></g>
<g><path style="opacity:1" fill="#092d49" d="M 262.5,157.5 C 264.271,170.013 261.438,181.346 254,191.5C 254.078,201.153 254.412,210.82 255,220.5C 255.833,221.333 256.667,222.167 257.5,223C 269.739,223.763 275.073,217.93 273.5,205.5C 272.708,197.172 272.542,188.838 273,180.5C 273.914,178.336 275.081,176.336 276.5,174.5C 276.833,174.667 277.167,174.833 277.5,175C 276.874,175.75 276.374,176.584 276,177.5C 275.773,190.602 278.107,203.269 283,215.5C 285.832,221.156 290.332,224.156 296.5,224.5C 295.28,219.455 295.28,214.455 296.5,209.5C 298.302,202.905 299.135,195.905 299,188.5C 300.307,186.808 301.807,185.475 303.5,184.5C 305.026,195.111 304.359,205.611 301.5,216C 303.141,219.345 303.641,222.845 303,226.5C 300.079,228.712 296.912,230.545 293.5,232C 291.291,233.873 289.458,236.04 288,238.5C 283.882,251.095 281.049,263.928 279.5,277C 246.167,277.333 212.833,277.667 179.5,278C 173.321,285.171 165.487,288.337 156,287.5C 151.764,287.506 147.598,287.006 143.5,286C 136.817,283.075 129.984,280.575 123,278.5C 118.516,279.579 114.016,280.579 109.5,281.5C 106.362,281.132 103.362,280.299 100.5,279C 83.8367,278.5 67.17,278.333 50.5,278.5C 50.4571,275.133 50.7904,271.799 51.5,268.5C 50.8312,264.487 50.1645,260.487 49.5,256.5C 51.6237,257.031 53.1237,258.365 54,260.5C 54.3333,259.5 54.6667,258.5 55,257.5C 55.0572,260.851 55.8906,263.851 57.5,266.5C 57.5,268.167 57.5,269.833 57.5,271.5C 67.5056,271.666 77.5056,271.5 87.5,271C 86.944,270.617 86.6107,270.117 86.5,269.5C 87.4363,268.026 88.7697,267.026 90.5,266.5C 95.3622,270.099 100.695,272.933 106.5,275C 108.5,275.667 110.5,275.667 112.5,275C 115.113,273.929 115.113,273.095 112.5,272.5C 112.833,271.833 113.167,271.167 113.5,270.5C 118.625,270.531 123.625,271.364 128.5,273C 134.498,276.5 140.831,279.167 147.5,281C 160.58,284.373 170.747,280.539 178,269.5C 182.583,260.75 186.583,251.75 190,242.5C 195.972,230.028 205.139,220.694 217.5,214.5C 218.696,214.846 218.696,215.346 217.5,216C 214.667,218.167 211.833,220.333 209,222.5C 197.26,236.978 189.593,253.311 186,271.5C 187,270.5 188,269.5 189,268.5C 192.124,261.923 194.957,255.256 197.5,248.5C 198.473,247.209 199.473,247.209 200.5,248.5C 201.081,245.625 202.081,242.958 203.5,240.5C 204.308,240.808 204.975,241.308 205.5,242C 204.209,243.292 204.209,244.458 205.5,245.5C 204.959,248.652 205.959,251.152 208.5,253C 214.718,255.824 221.051,256.157 227.5,254C 242.723,236.331 249.556,215.831 248,192.5C 250.745,186.675 253.745,181.008 257,175.5C 259.103,170.698 260.269,165.698 260.5,160.5C 261.167,159.5 261.833,158.5 262.5,157.5 Z M 206.5,261.5 C 208.722,261.178 210.556,261.845 212,263.5C 212.497,265.81 212.663,268.143 212.5,270.5C 209.833,270.5 207.167,270.5 204.5,270.5C 204.065,267.162 204.732,264.162 206.5,261.5 Z"/></g>
<g><path style="opacity:1" fill="#19354c" d="M 91.5,261.5 C 91.56,260.957 91.8933,260.624 92.5,260.5C 100.118,261.301 107.784,261.801 115.5,262C 122.736,264.039 130.069,265.539 137.5,266.5C 141.614,266.279 145.614,265.779 149.5,265C 147.623,266.185 145.623,267.185 143.5,268C 137.167,268.667 130.833,268.667 124.5,268C 115.632,266.006 106.632,265.006 97.5,265C 95.3083,264.074 93.3083,262.907 91.5,261.5 Z"/></g>
<g><path style="opacity:1" fill="#fbfdfd" d="M 269.5,227.5 C 276.839,226.161 280.839,229.161 281.5,236.5C 277.89,247.606 275.224,258.939 273.5,270.5C 255.512,271.5 237.512,271.833 219.5,271.5C 219.343,270.127 219.51,268.793 220,267.5C 223.042,264.067 226.542,261.234 230.5,259C 236.802,251.697 243.468,244.697 250.5,238C 256.316,233.428 262.649,229.928 269.5,227.5 Z"/></g>
<g><path style="opacity:1" fill="#cee4ed" d="M 196.5,265.5 C 198.074,267.102 198.741,269.102 198.5,271.5C 196.801,271.66 195.134,271.494 193.5,271C 194.639,269.22 195.639,267.386 196.5,265.5 Z"/></g>
<g><path style="opacity:1" fill="#61707a" d="M 113.5,270.5 C 113.167,271.167 112.833,271.833 112.5,272.5C 110.801,272.66 109.134,272.494 107.5,272C 109.345,270.872 111.345,270.372 113.5,270.5 Z"/></g>
</svg>
