<?xml version="1.0" standalone="no"?>
<!DOCTYPE svg PUBLIC "-//W3C//DTD SVG 20010904//EN"
 "http://www.w3.org/TR/2001/REC-SVG-20010904/DTD/svg10.dtd">
<svg version="1.0" xmlns="http://www.w3.org/2000/svg"
 width="300.000000pt" height="268.000000pt" viewBox="0 0 300.000000 268.000000"
 preserveAspectRatio="xMidYMid meet">
<metadata>
Created by potrace 1.10, written by Peter Selinger 2001-2011
</metadata>
<g transform="translate(0.000000,268.000000) scale(0.100000,-0.100000)"
fill="#000000" stroke="none">
<path d="M1307 2350 c-20 -6 -56 -20 -80 -32 l-42 -23 33 -3 c19 -2 44 4 59
13 18 12 44 16 87 15 118 -3 146 0 146 18 0 4 -12 7 -27 8 -16 0 -53 4 -83 7
-30 3 -72 2 -93 -3z"/>
<path d="M1345 2300 c3 -5 13 -10 21 -10 23 0 16 -18 -8 -22 -32 -4 -33 -30
-4 -65 33 -40 75 -57 107 -44 23 8 23 9 4 16 -36 11 -68 30 -72 41 -2 5 19 16
47 23 27 7 50 16 50 20 0 7 -118 51 -138 51 -7 0 -10 -4 -7 -10z"/>
<path d="M1290 2286 c-14 -7 -52 -16 -85 -19 -50 -5 -64 -11 -87 -37 -50 -54
-24 -73 26 -19 27 29 33 31 77 25 41 -6 51 -3 78 20 46 39 41 57 -9 30z"/>
<path d="M1168 2210 l-23 -19 28 -1 c19 0 26 4 21 12 -5 8 -2 9 9 5 10 -3 17
-2 17 2 0 19 -30 19 -52 1z"/>
<path d="M1300 2197 c0 -23 -17 -76 -45 -136 -84 -182 -98 -248 -75 -333 6
-21 18 -45 28 -54 16 -16 17 -16 23 7 l6 24 11 -27 c6 -15 20 -31 30 -37 17
-9 18 -7 14 14 -2 15 0 25 7 25 6 0 11 -11 11 -25 0 -34 17 -31 38 6 9 17 27
47 39 65 25 38 18 44 -20 14 -32 -25 -71 -25 -112 0 -41 25 -59 68 -51 117 4
21 33 92 66 158 72 148 76 163 50 195 l-20 25 0 -38z"/>
<path d="M1228 2185 c-29 -20 -46 -24 -82 -21 -56 6 -59 -5 -8 -27 49 -21 61
-21 85 1 20 17 20 16 13 -32 -8 -62 3 -53 26 22 29 92 25 97 -34 57z"/>
<path d="M1064 2166 c-5 -13 -2 -23 11 -32 18 -13 18 -14 -3 -14 -14 0 -22 6
-22 17 0 15 -2 15 -14 3 -31 -32 -24 -44 24 -41 25 1 54 5 64 8 18 5 17 7 -8
20 -15 8 -31 24 -36 36 -8 21 -8 21 -16 3z"/>
<path d="M755 2068 c-40 -80 -127 -226 -238 -400 -22 -34 2 -29 56 10 29 22
66 55 81 72 35 43 43 33 17 -24 -19 -44 -18 -54 4 -38 10 7 78 92 103 128 10
17 12 13 10 -25 -2 -27 2 -46 9 -48 11 -4 43 48 57 95 10 31 -8 28 -23 -4 -13
-29 -23 -26 -27 9 -1 12 -3 24 -3 27 -1 3 -19 -15 -41 -40 -40 -45 -51 -40
-30 14 13 36 -4 41 -26 8 -23 -36 -64 -74 -75 -70 -5 2 7 25 26 52 68 96 181
338 157 335 -4 0 -29 -46 -57 -101z"/>
<path d="M1360 2154 c0 -17 53 -74 69 -74 30 0 31 11 3 34 -35 28 -72 48 -72
40z"/>
<path d="M1720 2152 c0 -5 51 -23 113 -40 61 -18 166 -48 232 -68 66 -20 161
-41 210 -47 50 -7 90 -17 90 -22 0 -6 -34 -15 -75 -22 -165 -25 -174 -30 -120
-58 40 -21 39 -39 -2 -31 -18 3 -53 9 -77 12 l-44 7 19 -26 c10 -15 22 -27 27
-27 4 0 7 -5 7 -11 0 -16 -135 -6 -155 11 -21 17 -31 5 -14 -16 12 -15 10 -16
-21 -9 -19 4 -44 16 -56 26 -33 30 -41 22 -9 -11 26 -27 99 -60 134 -60 10 0
8 7 -10 27 -21 23 -22 25 -4 18 28 -12 195 -19 195 -8 0 4 -14 17 -30 28 -37
24 -39 38 -4 25 57 -22 206 -7 190 19 -3 5 -21 12 -41 15 -60 12 -50 26 17 26
46 0 75 6 108 23 58 30 90 50 90 58 0 10 -181 48 -285 59 -55 6 -145 24 -200
40 -121 34 -259 70 -274 70 -6 0 -11 -4 -11 -8z"/>
<path d="M1650 2083 c-111 -176 -170 -244 -254 -288 l-38 -20 -40 45 c-40 44
-41 44 -34 15 4 -16 18 -41 31 -54 l24 -25 53 17 c119 37 188 107 273 276 25
48 45 91 45 95 0 21 -23 -2 -60 -61z"/>
<path d="M842 2099 c48 -87 171 -171 271 -185 52 -7 67 9 18 19 -68 14 -167
72 -235 139 -37 38 -70 68 -73 68 -2 0 6 -19 19 -41z"/>
<path d="M1360 2105 c0 -17 39 -75 55 -81 8 -4 23 -3 33 1 15 6 14 8 -8 16
-14 5 -37 24 -52 42 -15 18 -28 28 -28 22z"/>
<path d="M1770 2097 c0 -24 93 -90 178 -127 73 -31 74 -31 150 -19 77 12 124
27 92 29 -8 1 -22 3 -30 5 -8 1 -47 8 -86 14 -107 16 -243 64 -286 100 -16 12
-18 12 -18 -2z"/>
<path d="M1321 2064 c-15 -55 -15 -55 26 -91 51 -44 75 -45 32 -2 -14 14 -19
29 -16 47 3 14 -3 38 -13 55 l-18 30 -11 -39z"/>
<path d="M1713 2063 c-4 -16 -7 -53 -7 -83 0 -79 30 -139 88 -178 26 -18 51
-32 57 -32 19 0 7 16 -31 42 -59 41 -85 104 -85 201 1 78 -9 99 -22 50z"/>
<path d="M816 2045 c-5 -11 -20 -46 -34 -77 -14 -34 -22 -64 -17 -75 17 -44
70 74 63 140 -3 28 -5 29 -12 12z"/>
<path d="M1754 2009 c2 -31 14 -78 27 -105 21 -46 23 -47 29 -24 5 21 8 22 16
9 13 -22 63 -53 72 -45 4 4 -9 22 -29 41 -50 45 -86 94 -104 141 l-15 39 4
-56z"/>
<path d="M1382 2008 c9 -13 26 -24 39 -26 23 -3 23 -2 -6 22 -37 32 -52 33
-33 4z"/>
<path d="M1800 2025 c0 -28 136 -170 178 -186 13 -5 37 -9 54 -9 l30 0 -31 35
c-17 20 -31 42 -31 49 0 7 -18 18 -39 25 -22 6 -63 27 -92 47 -69 46 -69 46
-69 39z"/>
<path d="M850 1985 c0 -13 -7 -43 -16 -65 -9 -23 -14 -44 -10 -47 3 -3 26 13
51 36 24 22 49 41 55 41 5 0 10 5 10 10 0 17 -29 11 -50 -10 -20 -20 -20 -20
-20 20 0 22 -4 40 -10 40 -5 0 -10 -11 -10 -25z"/>
<path d="M1252 1937 c-38 -91 -27 -157 29 -187 32 -18 34 -4 5 30 -20 24 -26
43 -26 76 0 25 4 53 9 62 14 28 22 72 13 72 -5 0 -18 -24 -30 -53z"/>
<path d="M1300 1952 c0 -27 45 -62 81 -62 43 0 44 17 2 30 -21 7 -48 22 -60
33 l-23 20 0 -21z"/>
<path d="M1656 1948 c-23 -89 19 -164 102 -183 41 -9 40 -2 -3 37 -39 34 -75
102 -75 142 0 32 -16 34 -24 4z"/>
<path d="M956 1914 c-8 -20 -8 -82 0 -111 9 -33 24 -28 24 7 0 31 13 40 26 18
4 -6 2 -14 -4 -16 -17 -5 4 -42 25 -42 14 0 14 2 -2 20 -25 28 -9 25 27 -5 16
-14 37 -25 46 -25 11 0 -4 20 -41 53 -31 28 -62 67 -68 85 -12 35 -23 41 -33
16z"/>
<path d="M1290 1899 c0 -29 54 -69 93 -69 34 0 35 16 2 24 -13 3 -40 20 -60
37 -35 31 -35 31 -35 8z"/>
<path d="M886 1895 c-13 -34 4 -105 26 -105 13 0 10 54 -6 90 -10 25 -14 29
-20 15z"/>
<path d="M1605 1887 c-4 -15 -5 -38 -3 -51 4 -22 1 -24 -45 -29 -44 -6 -105
-32 -95 -42 2 -3 26 2 53 10 65 20 81 19 144 -10 30 -14 57 -22 60 -19 3 4 -1
9 -9 12 -32 11 -80 70 -80 99 0 15 -4 35 -9 42 -8 12 -11 9 -16 -12z"/>
<path d="M1030 1890 c0 -22 29 -60 46 -60 8 0 14 8 14 18 0 10 5 23 12 30 6 6
9 14 6 18 -4 3 -15 -4 -25 -15 l-18 -21 -17 22 c-13 17 -18 19 -18 8z"/>
<path d="M1131 1862 c-25 -36 -26 -50 -5 -80 18 -27 39 -20 22 8 -9 14 -9 27
0 56 15 48 10 53 -17 16z"/>
<path d="M1474 1747 c-34 -13 -84 -51 -84 -62 0 -4 19 -5 42 -2 23 3 49 2 57
-3 28 -15 111 -23 111 -11 0 21 -72 43 -123 37 -56 -6 -55 5 2 24 34 11 47 10
90 -4 54 -17 99 -20 119 -8 41 27 -155 53 -214 29z"/>
<path d="M1400 1645 c-25 -14 -55 -25 -67 -25 -13 0 -23 -4 -23 -8 0 -10 88
-42 116 -42 52 0 128 -32 202 -86 34 -26 26 -1 -15 41 -41 42 -124 85 -165 85
-36 0 -36 15 1 31 16 7 27 17 25 21 -8 13 -26 9 -74 -17z"/>
<path d="M1491 1641 c-15 -10 -8 -15 31 -25 15 -3 44 -20 63 -37 20 -18 39
-29 42 -25 9 8 -45 64 -79 82 -31 16 -38 17 -57 5z"/>
<path d="M1270 1602 c0 -10 77 -83 115 -109 17 -12 67 -35 113 -53 46 -18 86
-38 88 -45 3 -7 12 -16 20 -19 46 -18 -29 73 -91 109 -23 14 -65 32 -93 40
-28 9 -72 31 -97 50 -47 36 -55 40 -55 27z"/>
<path d="M1525 1504 c22 -15 52 -38 67 -51 40 -38 78 -133 85 -212 5 -59 2
-75 -17 -115 -24 -48 -56 -83 -66 -74 -3 3 4 14 15 25 30 28 41 67 41 148 0
68 -14 125 -30 125 -3 0 -6 -24 -6 -52 1 -105 -121 -301 -213 -343 -40 -18
-54 -35 -28 -35 27 0 120 32 165 57 106 58 164 144 164 243 -1 57 -20 124 -47
163 -24 35 -17 41 16 13 31 -26 69 -35 69 -16 0 6 -12 15 -27 21 -15 6 -30 14
-33 18 -10 16 -163 111 -179 111 -8 0 2 -12 24 -26z m101 -336 c-4 -24 -16
-58 -27 -76 -10 -19 -17 -37 -14 -42 3 -5 -8 -18 -25 -30 -37 -27 -38 -14 -2
47 16 26 37 69 48 95 10 27 21 48 23 48 2 0 1 -19 -3 -42z"/>
<path d="M1660 1494 c0 -13 63 -72 120 -113 l45 -33 -45 7 c-44 7 -45 6 -21
-11 33 -24 101 -29 126 -10 20 15 20 15 1 16 -19 0 -148 79 -171 104 -24 26
-55 48 -55 40z"/>
<path d="M1720 1334 c0 -3 13 -19 29 -36 16 -17 41 -58 56 -92 15 -33 35 -76
44 -95 21 -45 19 -138 -5 -218 -21 -71 -34 -81 -34 -25 0 20 -7 77 -15 126 -8
49 -11 94 -8 100 10 15 33 -80 33 -136 0 -26 5 -50 10 -53 14 -9 12 122 -3
165 -6 20 -19 47 -28 60 -9 14 -19 35 -23 48 -4 12 -11 22 -16 22 -12 0 -1
-115 30 -315 10 -63 7 -135 -7 -171 -3 -8 -1 -14 4 -14 20 0 90 174 98 240 10
92 8 114 -20 182 -14 34 -25 62 -25 64 0 1 29 -28 64 -64 65 -67 77 -88 34
-58 -38 27 -44 18 -11 -16 33 -35 57 -84 48 -99 -8 -12 14 -51 25 -44 8 5 -4
58 -25 107 -6 14 -2 15 29 8 48 -11 54 3 13 29 -19 11 -63 53 -98 93 -136 155
-199 216 -199 192z"/>
<path d="M1720 1235 c0 -123 -78 -266 -205 -374 -150 -127 -183 -175 -192
-280 -5 -58 -2 -74 21 -121 24 -52 83 -127 91 -118 2 2 -7 28 -21 57 -22 44
-25 61 -19 104 10 75 32 115 99 180 33 31 55 57 50 57 -5 0 -36 -11 -69 -25
-61 -24 -105 -65 -105 -98 0 -13 8 -9 31 18 42 47 58 45 19 -3 -32 -41 -50
-88 -50 -137 0 -23 -3 -27 -10 -15 -15 24 -12 146 5 188 10 22 66 86 143 162
146 143 197 218 218 318 16 79 18 128 4 137 -6 4 -10 -15 -10 -50z"/>
<path d="M1706 1017 c-35 -73 -86 -134 -144 -172 -48 -32 -110 -101 -99 -111
3 -3 23 11 45 32 75 76 162 145 162 131 0 -22 -76 -103 -110 -117 -37 -15 -30
-31 10 -20 50 14 79 43 114 112 33 65 62 166 54 190 -2 6 -17 -14 -32 -45z"/>
<path d="M1930 975 c-1 -5 -2 -31 -4 -56 -3 -33 -16 -68 -48 -120 -46 -76 -62
-112 -73 -164 -6 -27 -1 -24 54 35 33 36 60 73 61 84 0 15 -6 12 -29 -15 -44
-50 -45 -32 -1 33 21 31 41 54 44 51 21 -21 -27 -203 -65 -249 -18 -22 -2 -30
21 -9 20 18 21 18 14 -1 -16 -42 -65 -100 -103 -122 -40 -22 -56 -17 -25 9 20
17 42 60 60 118 17 55 16 51 5 51 -5 0 -15 -16 -21 -36 -7 -20 -31 -64 -54
-97 -65 -96 -64 -90 -15 -82 93 15 152 83 175 202 8 42 16 78 18 80 2 2 11 -9
21 -24 10 -15 28 -36 39 -46 27 -24 116 -70 123 -63 3 3 -9 22 -26 43 -17 21
-31 42 -31 47 0 5 -7 17 -15 26 -8 9 -25 55 -37 103 -12 48 -26 87 -30 87 -11
0 -10 -132 2 -150 7 -10 8 0 5 35 -6 55 0 51 10 -7 3 -20 21 -60 40 -88 37
-55 33 -64 -14 -24 -66 55 -73 75 -78 207 -2 66 -8 128 -13 136 -5 9 -10 12
-10 6z"/>
<path d="M1676 818 c-87 -124 -115 -187 -116 -262 0 -73 55 -246 79 -246 4 0
8 39 9 88 1 105 17 161 71 247 23 36 44 80 48 98 l6 32 -24 -21 c-13 -11 -41
-31 -62 -45 -60 -38 -101 -140 -79 -199 7 -20 10 -15 16 34 8 69 25 105 67
140 40 34 49 26 17 -16 -14 -18 -32 -46 -40 -63 -22 -41 -51 -181 -42 -197 4
-9 4 -10 -3 -3 -36 36 -47 208 -18 266 26 50 49 76 62 72 17 -6 71 24 82 46
25 46 33 141 12 141 -3 0 -42 -51 -85 -112z m73 34 c-12 -41 -59 -102 -78
-102 -6 0 -11 2 -11 5 0 10 93 145 97 141 3 -2 -1 -22 -8 -44z"/>
<path d="M1553 707 c-11 -12 -33 -42 -48 -67 -15 -25 -39 -57 -53 -72 -14 -15
-23 -31 -19 -34 10 -11 87 27 103 50 21 30 17 42 -6 21 -37 -33 -32 -7 10 55
42 65 48 86 13 47z"/>
<path d="M1726 579 c-26 -50 -45 -93 -42 -96 7 -7 67 31 95 61 20 21 21 26 8
26 -9 0 -19 -4 -22 -10 -3 -5 -15 -15 -26 -20 -19 -10 -19 -10 -2 25 10 21 20
31 24 24 9 -15 16 -2 24 44 12 61 -8 43 -59 -54z"/>
</g>
</svg>
